<svg width="24" height="24" viewBox="0 0 24 24" fill="none" xmlns="http://www.w3.org/2000/svg">
<path d="M21.625 15C20 15 20 17.5 21.625 17.5C23.308 17.5 23.2016 15 21.625 15Z" fill="#419AA4"/>
<path d="M5.5 8.5V13.25C5.5 13.4074 5.57331 13.5564 5.70274 13.6459C7.81572 15.1075 12.9301 16.9315 18.267 13.6466C18.4119 13.5574 18.5 13.3972 18.5 13.227V8.13636M18.5 8.13636L12.1709 10.4379C12.0605 10.478 11.9395 10.478 11.8291 10.4379L2.29221 6.9699C1.85338 6.81032 1.85338 6.18968 2.29222 6.0301L11.8291 2.56213C11.9395 2.522 12.0605 2.522 12.1709 2.56214L21.7078 6.0301C22.1466 6.18968 22.1466 6.81032 21.7078 6.9699L21.625 7M18.5 8.13636L21.625 7M21.625 7V15M21.625 15C20 15 20 17.5 21.625 17.5M21.625 15C23.2016 15 23.308 17.5 21.625 17.5M21.625 17.5V20.7166" stroke="#419AA4" stroke-width="2" stroke-linecap="round"/>
</svg>
