<svg width="40" height="40" viewBox="0 0 40 40" fill="none" xmlns="http://www.w3.org/2000/svg">
<path d="M29.667 4C30.5839 4 31.3318 3.99931 31.9375 4.04883C32.5549 4.09932 33.112 4.20731 33.6328 4.47266C34.447 4.88752 35.1123 5.5489 35.5283 6.36523C35.7936 6.88579 35.9007 7.44371 35.9512 8.06055C36.0006 8.6659 36 9.41305 36 10.3281V29.6719C36 30.5869 36.0006 31.3334 35.9512 31.9385C35.9007 32.5552 35.7935 33.1123 35.5283 33.6328C35.1129 34.4482 34.4482 35.1129 33.6328 35.5283C33.1123 35.7935 32.5552 35.9007 31.9385 35.9512C31.3334 36.0006 30.5869 36 29.6719 36H10.3281C9.41305 36 8.6659 36.0006 8.06055 35.9512C7.44371 35.9007 6.88579 35.7936 6.36523 35.5283C5.5489 35.1123 4.88752 34.447 4.47266 33.6328C4.20731 33.112 4.09932 32.5549 4.04883 31.9375C3.99931 31.3318 4 30.5839 4 29.667V10.334C4 9.41706 3.99932 8.66866 4.04883 8.0625C4.09929 7.44476 4.20718 6.88626 4.47266 6.36523C4.88804 5.55025 5.55025 4.88804 6.36523 4.47266C6.88626 4.20718 7.44476 4.09929 8.0625 4.04883C8.66866 3.99932 9.41705 4 10.334 4H29.667Z" stroke="#74B5BC" stroke-width="2" stroke-linecap="round" stroke-linejoin="round"/>
<path d="M11.668 20H28.3346" stroke="#419AA4" stroke-width="2" stroke-linecap="round"/>
</svg>
