<svg width="48" height="48" viewBox="0 0 48 48" fill="none" xmlns="http://www.w3.org/2000/svg">
<g clip-path="url(#clip0_4263_5143)">
<path fill-rule="evenodd" clip-rule="evenodd" d="M40.9258 6.976C36.4338 2.48 30.4618 0.002 24.0998 0C10.9898 0 0.31977 10.668 0.31377 23.784C0.31177 27.976 1.40777 32.068 3.48977 35.676L0.11377 48L12.7218 44.692C16.1958 46.588 20.1078 47.586 24.0878 47.588H24.0978C37.2058 47.588 47.8778 36.918 47.8838 23.802C47.8878 17.448 45.4158 11.47 40.9258 6.976ZM24.0998 43.57H24.0918C20.5438 43.57 17.0658 42.616 14.0298 40.814L13.3078 40.386L5.82577 42.348L7.82377 35.052L7.35377 34.304C5.37377 31.156 4.32977 27.518 4.33177 23.784C4.33577 12.884 13.2058 4.016 24.1098 4.016C29.3898 4.016 34.3538 6.076 38.0858 9.812C41.8178 13.55 43.8718 18.516 43.8698 23.798C43.8638 34.702 34.9958 43.57 24.0998 43.57ZM34.9438 28.764C34.3498 28.466 31.4278 27.028 30.8818 26.83C30.3378 26.632 29.9418 26.532 29.5438 27.126C29.1458 27.72 28.0098 29.06 27.6618 29.458C27.3158 29.854 26.9678 29.904 26.3738 29.606C25.7798 29.308 23.8638 28.682 21.5938 26.656C19.8278 25.08 18.6338 23.134 18.2878 22.538C17.9418 21.942 18.2518 21.622 18.5478 21.326C18.8158 21.06 19.1418 20.632 19.4398 20.284C19.7398 19.94 19.8378 19.692 20.0378 19.294C20.2358 18.898 20.1378 18.55 19.9878 18.252C19.8378 17.956 18.6498 15.03 18.1558 13.84C17.6738 12.68 17.1838 12.838 16.8178 12.82C16.4718 12.802 16.0758 12.8 15.6778 12.8C15.2818 12.8 14.6378 12.948 14.0938 13.544C13.5498 14.14 12.0138 15.578 12.0138 18.502C12.0138 21.428 14.1438 24.254 14.4398 24.65C14.7358 25.046 18.6298 31.05 24.5918 33.624C26.0098 34.236 27.1178 34.602 27.9798 34.876C29.4038 35.328 30.6998 35.264 31.7238 35.112C32.8658 34.942 35.2398 33.674 35.7358 32.286C36.2318 30.898 36.2318 29.706 36.0818 29.46C35.9338 29.21 35.5378 29.062 34.9438 28.764Z" fill="white"/>
</g>
<defs>
<clipPath id="clip0_4263_5143">
<rect width="48" height="48" fill="white"/>
</clipPath>
</defs>
</svg>
