<svg width="124" height="40" viewBox="0 0 124 40" fill="none" xmlns="http://www.w3.org/2000/svg">
<path d="M8.83283 16.692V36.3462H3.38281V5.84082H10.3121L19.11 29.0685L27.869 5.84082H34.7983V36.3462H29.3482V16.7792L21.835 36.3462H16.3461L8.83283 16.692Z" fill="#007C89" fill-opacity="0.2"/>
<path d="M61.4188 26.9767H43.7452C44.0343 28.5303 44.7911 29.8276 45.8786 30.7414C46.9873 31.673 48.4397 32.2062 50.0905 32.2062C52.4263 32.2062 54.2948 31.2474 55.307 29.6786H60.8349C59.3556 34.1236 55.1902 36.9999 49.857 36.9999C46.8343 36.9999 44.1528 35.9963 42.1204 34.2899C39.6506 32.2163 38.1394 29.1048 38.1394 25.495C38.1394 18.8274 43.1223 13.903 49.857 13.903C52.8793 13.903 55.5565 14.8641 57.5791 16.5622C60.0113 18.6042 61.4967 21.7118 61.4967 25.495C61.4967 25.9744 61.4966 26.4973 61.4188 26.9767ZM43.7452 23.9261H55.8909C55.6158 22.3641 54.8942 21.0798 53.8363 20.1908C52.7987 19.3189 51.4376 18.8274 49.857 18.8274C46.7037 18.8274 44.3291 20.8756 43.7452 23.9261Z" fill="#007C89" fill-opacity="0.2"/>
<path d="M88.865 36.3462H84.0379L83.4929 33.47C81.5075 35.6925 78.6657 36.9999 75.3568 36.9999C72.5058 36.9999 69.9655 36.0414 68.0166 34.405C65.5481 32.3324 64.0285 29.1723 64.0285 25.495C64.0285 18.8274 68.8557 13.903 75.3568 13.903C78.0804 13.903 80.5275 14.801 82.4181 16.3882C82.7703 16.6839 83.1032 17.0035 83.415 17.3457V5.84082H88.865V36.3462ZM69.4785 25.495C69.4785 27.2936 70.2467 28.8433 71.5408 29.9307C72.7866 30.9775 74.5198 31.5961 76.5246 31.5961C80.6511 31.5961 83.415 29.112 83.415 25.495C83.415 23.5799 82.6479 21.963 81.3311 20.8565C80.1308 19.8478 78.4738 19.2632 76.5246 19.2632C72.4371 19.2632 69.4785 21.8779 69.4785 25.495Z" fill="#007C89" fill-opacity="0.2"/>
<path d="M112.439 20.8756L124 36.3462H116.915L108.896 25.6257L100.877 36.3462H93.7918L105.354 20.8756L94.1032 5.84082H101.188L108.896 16.1255L116.604 5.84082H123.689L112.439 20.8756Z" fill="#007C89" fill-opacity="0.2"/>
<path d="M6.92931 3H0L3.38224 5.84094H10.3115L6.92931 3Z" fill="#007C89" fill-opacity="0.2"/>
<path d="M0 3V33.5054L3.38224 36.3463V5.84094L0 3Z" fill="#007C89" fill-opacity="0.2"/>
<path d="M15.7276 26.2277L6.92969 3L10.3119 5.84094L19.1098 29.0686L15.7276 26.2277Z" fill="#007C89" fill-opacity="0.2"/>
<path d="M5.45312 33.5057V13.8516L8.83536 16.6925V36.3467L5.45312 33.5057Z" fill="#007C89" fill-opacity="0.2"/>
<path d="M5.45312 13.8516L12.9664 33.5057L16.3486 36.3467L8.83536 16.6925L5.45312 13.8516Z" fill="#007C89" fill-opacity="0.2"/>
<path d="M31.4137 3H24.4844L27.8666 5.84094H34.7959L31.4137 3Z" fill="#007C89" fill-opacity="0.2"/>
<path d="M0 33.5049H5.45002L8.83225 36.3458H3.38224L0 33.5049Z" fill="#007C89" fill-opacity="0.2"/>
<path d="M24.4855 3L15.7266 26.2277L19.1088 29.0686L27.8677 5.84094L24.4855 3Z" fill="#007C89" fill-opacity="0.2"/>
<path d="M18.4531 33.5055L25.9664 13.9385L29.3486 16.7794L21.8354 36.3464L18.4531 33.5055Z" fill="#007C89" fill-opacity="0.2"/>
<path d="M12.9609 33.5049H18.4499L21.8321 36.3458H16.3432L12.9609 33.5049Z" fill="#007C89" fill-opacity="0.2"/>
<path d="M25.9688 13.9385V33.5055L29.351 36.3464V16.7794L25.9688 13.9385Z" fill="#007C89" fill-opacity="0.2"/>
<path d="M31.4141 33.5054V3L34.7963 5.84094V36.3463L31.4141 33.5054Z" fill="#007C89" fill-opacity="0.2"/>
<path d="M46.4753 11.0625C39.7407 11.0625 34.7578 15.9869 34.7578 22.6545L38.14 25.4955C38.14 18.8279 43.1229 13.9034 49.8576 13.9034L46.4753 11.0625Z" fill="#007C89" fill-opacity="0.2"/>
<path d="M25.9688 33.5049H31.4188L34.801 36.3458H29.351L25.9688 33.5049Z" fill="#007C89" fill-opacity="0.2"/>
<path d="M40.3594 21.0851C40.9433 18.0345 43.318 15.9863 46.4712 15.9863L49.8534 18.8273C46.7002 18.8273 44.3255 20.8755 43.7416 23.926L40.3594 21.0851Z" fill="#007C89" fill-opacity="0.2"/>
<path d="M34.7578 22.6543C34.7578 26.2641 36.269 29.3756 38.7387 31.4492L42.1174 34.2872C39.6498 32.2136 38.14 29.1033 38.14 25.4952L34.7578 22.6543Z" fill="#007C89" fill-opacity="0.2"/>
<path d="M54.1987 13.7217C52.1761 12.0237 49.4989 11.0625 46.4766 11.0625L49.8588 13.9034C52.8811 13.9034 55.5584 14.8646 57.5809 16.5627L54.1987 13.7217Z" fill="#007C89" fill-opacity="0.2"/>
<path d="M46.4766 15.9863C48.0572 15.9863 49.4183 16.4778 50.4559 17.3498L53.8363 20.1892C52.799 19.3182 51.4385 18.8273 49.8588 18.8273L46.4766 15.9863Z" fill="#007C89" fill-opacity="0.2"/>
<path d="M42.4928 27.9004C41.4053 26.9866 40.6485 25.6894 40.3594 24.1357L43.7416 26.9767C44.0307 28.5303 44.7876 29.8276 45.875 30.7414L42.4928 27.9004Z" fill="#007C89" fill-opacity="0.2"/>
<path d="M52.5051 21.085H40.3594L43.7416 23.9259H55.8874L52.5051 21.085Z" fill="#007C89" fill-opacity="0.2"/>
<path d="M50.4531 17.3496C51.511 18.2386 52.2326 19.5229 52.5077 21.0849L55.8899 23.9259C55.6148 22.3638 54.8932 21.0795 53.8354 20.1906L50.4531 17.3496Z" fill="#007C89" fill-opacity="0.2"/>
<path d="M46.7041 29.3652C45.0543 29.3652 43.6026 28.8327 42.4941 27.902L45.8744 30.7413C46.9831 31.673 48.4355 32.2061 50.0864 32.2061L46.7041 29.3652Z" fill="#007C89" fill-opacity="0.2"/>
<path d="M40.3594 24.1357H58.033L61.4152 26.9767H43.7416L40.3594 24.1357Z" fill="#007C89" fill-opacity="0.2"/>
<path d="M38.7344 31.4492C40.7668 33.1556 43.4483 34.1592 46.471 34.1592L49.8532 37.0001C46.8305 37.0001 44.149 35.9966 42.1166 34.2902L38.7344 31.4492Z" fill="#007C89" fill-opacity="0.2"/>
<path d="M58.1129 22.6545C58.1129 18.8733 56.629 15.7669 54.199 13.7248L57.5775 16.5626C60.0098 18.6046 61.4951 21.7123 61.4951 25.4954L58.1129 22.6545Z" fill="#007C89" fill-opacity="0.2"/>
<path d="M51.9196 26.8379C50.9074 28.4067 49.0388 29.3655 46.7031 29.3655L50.0854 32.2064C52.4211 32.2064 54.2897 31.2477 55.3018 29.6788L51.9196 26.8379Z" fill="#007C89" fill-opacity="0.2"/>
<path d="M57.4497 26.8379H51.9219L55.3041 29.6788H60.832L57.4497 26.8379Z" fill="#007C89" fill-opacity="0.2"/>
<path d="M46.4766 34.1592C51.8098 34.1592 55.9752 31.283 57.4545 26.8379L60.8367 29.6788C59.3574 34.1239 55.192 37.0001 49.8588 37.0001L46.4766 34.1592Z" fill="#007C89" fill-opacity="0.2"/>
<path d="M58.0391 24.136C58.1169 23.6566 58.1169 23.1337 58.1169 22.6543L61.4992 25.4952C61.4992 25.9746 61.4992 26.4976 61.4213 26.9769L58.0391 24.136Z" fill="#007C89" fill-opacity="0.2"/>
<path d="M71.9767 11.0625C65.4756 11.0625 60.6484 15.9869 60.6484 22.6545L64.0307 25.4955C64.0307 18.8279 68.8578 13.9034 75.3589 13.9034L71.9767 11.0625Z" fill="#007C89" fill-opacity="0.2"/>
<path d="M85.4813 3H80.0312L83.4135 5.84094H88.8635L85.4813 3Z" fill="#007C89" fill-opacity="0.2"/>
<path d="M60.6484 22.6543C60.6484 26.3316 62.168 29.4917 64.6365 31.5644L68.0156 34.4026C65.5489 32.33 64.0307 29.1709 64.0307 25.4952L60.6484 22.6543Z" fill="#007C89" fill-opacity="0.2"/>
<path d="M79.0379 13.5477C77.1473 11.9605 74.7002 11.0625 71.9766 11.0625L75.3588 13.9034C78.0825 13.9034 80.5295 14.8015 82.4201 16.3887L79.0379 13.5477Z" fill="#007C89" fill-opacity="0.2"/>
<path d="M66.0938 22.6537C66.0938 19.0366 69.0523 16.4219 73.1398 16.4219L76.5221 19.2628C72.4346 19.2628 69.476 21.8776 69.476 25.4946L66.0938 22.6537Z" fill="#007C89" fill-opacity="0.2"/>
<path d="M80.0312 3V14.5049L83.4135 17.3458V5.84094L80.0312 3Z" fill="#007C89" fill-opacity="0.2"/>
<path d="M68.156 27.09C66.8619 26.0026 66.0938 24.4529 66.0938 22.6543L69.476 25.4952C69.476 27.2938 70.2441 28.8435 71.5383 29.931L68.156 27.09Z" fill="#007C89" fill-opacity="0.2"/>
<path d="M73.1406 16.4219C75.0898 16.4219 76.7468 17.0065 77.9471 18.0152L81.3273 20.8544C80.1272 19.8468 78.4709 19.2628 76.5229 19.2628L73.1406 16.4219Z" fill="#007C89" fill-opacity="0.2"/>
<path d="M80.0282 14.5044C79.7176 14.1635 79.386 13.845 79.0353 13.5503L82.4135 16.3878C82.7657 16.6835 83.0986 17.0031 83.4104 17.3453L80.0282 14.5044Z" fill="#007C89" fill-opacity="0.2"/>
<path d="M73.1401 28.7552C71.1362 28.7552 69.4037 28.1372 68.158 27.0914L71.5385 29.9308C72.7843 30.9776 74.5175 31.5961 76.5223 31.5961L73.1401 28.7552Z" fill="#007C89" fill-opacity="0.2"/>
<path d="M64.6328 31.5645C66.5817 33.2008 69.122 34.1593 71.973 34.1593L75.3552 37.0002C72.5042 37.0002 69.9639 36.0417 68.015 34.4054L64.6328 31.5645Z" fill="#007C89" fill-opacity="0.2"/>
<path d="M77.9453 18.0156C79.2621 19.1222 80.0292 20.7391 80.0292 22.6541L83.4115 25.4951C83.4115 23.58 82.6444 21.9631 81.3275 20.8566L77.9453 18.0156Z" fill="#007C89" fill-opacity="0.2"/>
<path d="M97.8038 3H90.7188L94.101 5.84094H101.186L97.8038 3Z" fill="#007C89" fill-opacity="0.2"/>
<path d="M80.031 22.6543C80.031 26.2714 77.2671 28.7554 73.1406 28.7554L76.5229 31.5963C80.6493 31.5963 83.4132 29.1123 83.4132 25.4952L80.031 22.6543Z" fill="#007C89" fill-opacity="0.2"/>
<path d="M85.4844 33.5054V3L88.8666 5.84094V36.3463L85.4844 33.5054Z" fill="#007C89" fill-opacity="0.2"/>
<path d="M71.9766 34.1588C75.2855 34.1588 78.1273 32.8514 80.1127 30.6289L83.4949 33.4698C81.5095 35.6924 78.6677 36.9998 75.3588 36.9998L71.9766 34.1588Z" fill="#007C89" fill-opacity="0.2"/>
<path d="M90.7188 3L101.969 18.0348L105.351 20.8757L94.101 5.84094L90.7188 3Z" fill="#007C89" fill-opacity="0.2"/>
<path d="M80.1094 30.6289L80.6544 33.5051L84.0366 36.3461L83.4916 33.4698L80.1094 30.6289Z" fill="#007C89" fill-opacity="0.2"/>
<path d="M105.513 13.2847L97.8047 3L101.187 5.84094L108.895 16.1256L105.513 13.2847Z" fill="#28282F" fill-opacity="0.4"/>
<path d="M80.6562 33.5049H85.4834L88.8656 36.3458H84.0385L80.6562 33.5049Z" fill="#007C89" fill-opacity="0.2"/>
<path d="M113.224 3L105.516 13.2847L108.898 16.1256L116.606 5.84094L113.224 3Z" fill="#007C89" fill-opacity="0.2"/>
<path d="M101.968 18.0352L90.4062 33.5057L93.7885 36.3467L105.35 20.8761L101.968 18.0352Z" fill="#007C89" fill-opacity="0.2"/>
<path d="M120.304 3H113.219L116.601 5.84094H123.686L120.304 3Z" fill="#007C89" fill-opacity="0.2"/>
<path d="M90.4062 33.5049H97.4913L100.874 36.3458H93.7885L90.4062 33.5049Z" fill="#28282F" fill-opacity="0.4"/>
<path d="M109.055 18.0348L120.305 3L123.687 5.84094L112.437 20.8757L109.055 18.0348Z" fill="#28282F" fill-opacity="0.4"/>
<path d="M97.4922 33.5056L105.511 22.7852L108.894 25.6261L100.874 36.3466L97.4922 33.5056Z" fill="#28282F" fill-opacity="0.4"/>
<path d="M105.516 22.7852L113.535 33.5056L116.917 36.3466L108.898 25.6261L105.516 22.7852Z" fill="#007C89" fill-opacity="0.2"/>
<path d="M120.617 33.5057L109.055 18.0352L112.437 20.8761L123.999 36.3467L120.617 33.5057Z" fill="#28282F" fill-opacity="0.4"/>
<path d="M113.531 33.5049H120.616L123.998 36.3458H116.913L113.531 33.5049Z" fill="#28282F" fill-opacity="0.4"/>
<path d="M71.9736 13.5625C73.0555 13.5625 74.0662 13.7403 74.9854 14.0684C74.3877 13.9713 73.771 13.9219 73.1416 13.9219C67.9714 13.922 63.5957 17.3764 63.5957 22.6543C63.5958 27.8883 68.0209 31.2548 73.1416 31.2549C73.8437 31.2549 74.5299 31.1948 75.1924 31.0781C74.2236 31.4537 73.145 31.6592 71.9736 31.6592C66.9262 31.659 63.1456 27.8879 63.1455 22.6543C63.1455 17.3151 66.9052 13.5627 71.9736 13.5625ZM96.5547 5.5L103.513 14.7842L105.514 17.4531L107.514 14.7842L114.472 5.5H115.312L107.054 16.5371L105.934 18.0342L107.054 19.5312L115.628 31.0049H114.784L107.516 21.2871L105.514 18.6113L103.512 21.2871L96.2422 31.0049H95.3984L103.974 19.5312L105.093 18.0342L103.973 16.5371L95.7139 5.5H96.5547ZM28.915 5.5V31.0049H28.4658V13.9385L23.6318 13.042L16.7344 31.0049H16.5977L18.0664 27.1094L26.2148 5.5H28.915ZM5.20312 5.5L13.3896 27.1133L14.8633 31.0049H14.6846L7.78516 12.959L2.9502 13.8516V31.0049H2.5V5.5H5.20312ZM43.249 14.0674C40.4864 15.1207 38.4983 17.5275 37.9072 20.6152L37.7119 21.6357H37.3545L37.5303 22.583L37.3389 23.585H37.7168L37.9043 24.5928C38.4134 27.3285 40.0121 29.5103 42.2471 30.7461C39.2021 29.3125 37.2569 26.3141 37.2568 22.6543C37.2568 18.5214 39.625 15.2713 43.249 14.0674ZM49.6484 14.0381C50.9845 14.4635 52.1306 15.1557 53.042 16.0469C54.4122 17.3868 55.3571 19.2735 55.5684 21.6357H55.1436L54.9697 20.6514C54.4128 17.4899 52.4442 15.0726 49.6484 14.0381ZM82.5322 5.5H82.9824V31.0049H82.7256L82.5664 30.1641L81.8096 26.1699C82.2832 25.0985 82.5322 23.9106 82.5322 22.6543C82.5322 21.9957 82.4625 21.3556 82.3311 20.7402L82.5322 20.9609V5.5Z" stroke="#009AAB" stroke-width="5"/>
<path d="M96.5518 5.5L103.51 14.7842L105.511 17.4531L107.511 14.7842L114.469 5.5H115.311L107.052 16.5371L105.932 18.0342L107.051 19.5312L115.625 31.0049H114.782L107.513 21.2871L105.511 18.6113L103.509 21.2871L96.2393 31.0049H95.3965L103.971 19.5312L105.09 18.0342L103.97 16.5371L95.7109 5.5H96.5518Z" fill="#28282F" stroke="#28282F" stroke-width="5"/>
</svg>
