<svg width="16" height="16" viewBox="0 0 16 16" fill="none" xmlns="http://www.w3.org/2000/svg">
<g clip-path="url(#clip0_4511_3623)">
<path d="M11.3333 10.3333C11.3333 10.886 10.886 11.3333 10.3333 11.3333H5.66667C5.114 11.3333 4.66667 10.886 4.66667 10.3333C4.66667 9.78067 5.114 9.33333 5.66667 9.33333H10.3333C10.886 9.33333 11.3333 9.78067 11.3333 10.3333ZM16 5V12.3333C16 14.3553 14.3553 16 12.3333 16H3.66667C1.64467 16 0 14.3553 0 12.3333V5C0 2.978 1.64467 1.33333 3.66667 1.33333H4V1C4 0.447333 4.44733 0 5 0C5.55267 0 6 0.447333 6 1V1.33333H10V1C10 0.447333 10.4473 0 11 0C11.5527 0 12 0.447333 12 1V1.33333H12.3333C14.3553 1.33333 16 2.978 16 5ZM14 12.3333V6H2V12.3333C2 13.252 2.748 14 3.66667 14H12.3333C13.252 14 14 13.252 14 12.3333Z" fill="#32333F"/>
</g>
<defs>
<clipPath id="clip0_4511_3623">
<rect width="16" height="16" fill="white"/>
</clipPath>
</defs>
</svg>
