<svg width="48" height="48" viewBox="0 0 48 48" fill="none" xmlns="http://www.w3.org/2000/svg">
<g clip-path="url(#clip0_4263_5132)">
<path d="M48 24C48 35.978 39.212 45.908 27.74 47.71V30.984H33.318L34.38 24.064H27.74V19.574C27.74 17.68 28.668 15.836 31.64 15.836H34.658V9.944C34.658 9.944 31.918 9.476 29.3 9.476C23.832 9.476 20.26 12.79 20.26 18.788V24.062H14.182V30.982H20.26V47.708C8.79 45.904 0 35.976 0 24C0 10.746 10.746 0 24 0C37.254 0 48 10.744 48 24Z" fill="white"/>
</g>
<defs>
<clipPath id="clip0_4263_5132">
<rect width="48" height="48" fill="white"/>
</clipPath>
</defs>
</svg>
