<svg width="121" height="32" viewBox="0 0 121 32" fill="none" xmlns="http://www.w3.org/2000/svg">
<path d="M5.46729 10.8856V30.6021H0V0H6.95127L15.777 23.3013L24.5638 0H31.515V30.6021H26.0477V10.973L18.5107 30.6021H13.0043L5.46729 10.8856Z" fill="#007C89"/>
<path d="M58.2199 21.2029H40.4903C40.7803 22.7614 41.5396 24.0628 42.6305 24.9795C43.7427 25.9141 45.1997 26.4489 46.8558 26.4489C49.1989 26.4489 51.0734 25.4871 52.0888 23.9133H57.6341C56.1502 28.3725 51.9716 31.2578 46.6215 31.2578C43.5892 31.2578 40.8992 30.2511 38.8603 28.5393C36.3828 26.4591 34.8668 23.3377 34.8668 19.7165C34.8668 13.0277 39.8655 8.08768 46.6215 8.08768C49.6533 8.08768 52.3391 9.05192 54.368 10.7554C56.808 12.8038 58.298 15.9213 58.298 19.7165C58.298 20.1974 58.298 20.722 58.2199 21.2029ZM40.4903 18.1426H52.6745C52.3985 16.5757 51.6747 15.2873 50.6134 14.3955C49.5726 13.5208 48.2071 13.0277 46.6215 13.0277C43.4582 13.0277 41.0761 15.0824 40.4903 18.1426Z" fill="#007C89"/>
<path d="M85.7532 30.6021H80.9107L80.364 27.7167C78.3723 29.9463 75.5215 31.2578 72.2021 31.2578C69.3421 31.2578 66.7937 30.2963 64.8387 28.6548C62.3623 26.5755 60.8379 23.4054 60.8379 19.7165C60.8379 13.0277 65.6804 8.08768 72.2021 8.08768C74.9344 8.08768 77.3892 8.98855 79.2858 10.5808C79.6391 10.8774 79.9731 11.1981 80.2859 11.5413V0H85.7532V30.6021ZM66.3052 19.7165C66.3052 21.5208 67.0758 23.0753 68.3741 24.1663C69.6238 25.2164 71.3625 25.8369 73.3737 25.8369C77.5132 25.8369 80.2859 23.345 80.2859 19.7165C80.2859 17.7953 79.5163 16.1733 78.1953 15.0632C76.9912 14.0514 75.329 13.4649 73.3737 13.4649C69.2732 13.4649 66.3052 16.0879 66.3052 19.7165Z" fill="#007C89"/>
<path d="M109.401 15.0824L121 30.6021H113.892L105.848 19.8476L97.803 30.6021H90.6956L102.294 15.0824L91.008 0H98.1154L105.848 10.3173L113.58 0H120.688L109.401 15.0824Z" fill="#28282F"/>
</svg>
