<svg width="124" height="34" viewBox="0 0 124 34" fill="none" xmlns="http://www.w3.org/2000/svg">
<path d="M8.83231 13.692V33.346H3.38231V2.84081H10.3116L19.1094 26.0684L27.8684 2.84081H34.7976V33.346H29.3476V13.7791L21.8344 33.346H16.3455L8.83231 13.692Z" fill="#007C89" fill-opacity="0.2"/>
<path d="M61.4181 23.9766H43.7445C44.0336 25.5302 44.7905 26.8275 45.8779 27.7413C46.9866 28.6729 48.439 29.2061 50.0899 29.2061C52.4256 29.2061 54.2941 28.2473 55.3063 26.6785H60.8341C59.3548 31.1235 55.1895 33.9997 49.8563 33.9997C46.8336 33.9997 44.1521 32.9962 42.1197 31.2898C39.65 29.2162 38.1388 26.1047 38.1388 22.4949C38.1388 15.8273 43.1216 10.9029 49.8563 10.9029C52.8786 10.9029 55.5558 11.8641 57.5783 13.5621C60.0105 15.6041 61.4959 18.7118 61.4959 22.4949C61.4959 22.9743 61.4959 23.4972 61.4181 23.9766ZM43.7445 20.9261H55.8902C55.6151 19.3641 54.8935 18.0797 53.8356 17.1908C52.798 16.3188 51.4369 15.8273 49.8563 15.8273C46.7031 15.8273 44.3284 17.8755 43.7445 20.9261Z" fill="#007C89" fill-opacity="0.2"/>
<path d="M88.8642 33.346H84.0371L83.4921 30.4698C81.5067 32.6924 78.6649 33.9997 75.356 33.9997C72.505 33.9997 69.9647 33.0412 68.0159 31.4049C65.5474 29.3323 64.0278 26.1722 64.0278 22.4949C64.0278 15.8273 68.8549 10.9029 75.356 10.9029C78.0796 10.9029 80.5267 11.8009 82.4173 13.3881C82.7695 13.6838 83.1024 14.0035 83.4142 14.3456V2.84081H88.8642V33.346ZM69.4778 22.4949C69.4778 24.2935 70.2459 25.8432 71.5401 26.9306C72.7858 27.9774 74.519 28.5959 76.5239 28.5959C80.6503 28.5959 83.4142 26.1119 83.4142 22.4949C83.4142 20.5798 82.6471 18.963 81.3303 17.8564C80.13 16.8478 78.473 16.2631 76.5239 16.2631C72.4364 16.2631 69.4778 18.8778 69.4778 22.4949Z" fill="#007C89" fill-opacity="0.2"/>
<path d="M112.438 17.8755L123.999 33.346H116.914L108.895 22.6256L100.876 33.346H93.7909L105.353 17.8755L94.1024 2.84081H101.187L108.895 13.1254L116.603 2.84081H123.688L112.438 17.8755Z" fill="#007C89" fill-opacity="0.2"/>
<path d="M6.92928 0H0L3.38222 2.84093H10.3115L6.92928 0Z" fill="#007C89" fill-opacity="0.2"/>
<path d="M0 0V30.5052L3.38222 33.3462V2.84093L0 0Z" fill="#007C89" fill-opacity="0.2"/>
<path d="M15.727 23.2276L6.92917 0L10.3114 2.84093L19.1092 26.0685L15.727 23.2276Z" fill="#007C89" fill-opacity="0.2"/>
<path d="M5.45066 30.5056V10.8515L8.83288 13.6925V33.3465L5.45066 30.5056Z" fill="#007C89" fill-opacity="0.2"/>
<path d="M5.45066 10.8515L12.9639 30.5056L16.3461 33.3465L8.83288 13.6925L5.45066 10.8515Z" fill="#007C89" fill-opacity="0.2"/>
<path d="M31.415 0H24.4857L27.868 2.84093H34.7972L31.415 0Z" fill="#007C89" fill-opacity="0.2"/>
<path d="M0 30.5048H5.44999L8.83222 33.3457H3.38222L0 30.5048Z" fill="#007C89" fill-opacity="0.2"/>
<path d="M24.4849 0L15.726 23.2276L19.1082 26.0685L27.8672 2.84093L24.4849 0Z" fill="#007C89" fill-opacity="0.2"/>
<path d="M18.4526 30.5054L25.9658 10.9384L29.348 13.7794L21.8348 33.3463L18.4526 30.5054Z" fill="#007C89" fill-opacity="0.2"/>
<path d="M12.9633 30.5048H18.4523L21.8345 33.3457H16.3456L12.9633 30.5048Z" fill="#007C89" fill-opacity="0.2"/>
<path d="M25.9652 10.9384V30.5054L29.3475 33.3463V13.7794L25.9652 10.9384Z" fill="#007C89" fill-opacity="0.2"/>
<path d="M31.4149 30.5052V0L34.7971 2.84093V33.3462L31.4149 30.5052Z" fill="#007C89" fill-opacity="0.2"/>
<path d="M46.4747 8.06247C39.74 8.06247 34.7572 12.9869 34.7572 19.6545L38.1394 22.4954C38.1394 15.8278 43.1223 10.9034 49.8569 10.9034L46.4747 8.06247Z" fill="#007C89" fill-opacity="0.2"/>
<path d="M25.9652 30.5048H31.4152L34.7974 33.3457H29.3475L25.9652 30.5048Z" fill="#007C89" fill-opacity="0.2"/>
<path d="M40.3626 18.085C40.9466 15.0345 43.3212 12.9863 46.4744 12.9863L49.8566 15.8272C46.7034 15.8272 44.3288 17.8754 43.7449 20.9259L40.3626 18.085Z" fill="#007C89" fill-opacity="0.2"/>
<path d="M34.7572 19.6542C34.7572 23.264 36.2684 26.3755 38.7381 28.4491L42.1168 31.2871C39.6492 29.2135 38.1394 26.1032 38.1394 22.4952L34.7572 19.6542Z" fill="#007C89" fill-opacity="0.2"/>
<path d="M54.1955 10.7217C52.173 9.02365 49.4957 8.06247 46.4734 8.06247L49.8557 10.9034C52.878 10.9034 55.5552 11.8646 57.5777 13.5626L54.1955 10.7217Z" fill="#007C89" fill-opacity="0.2"/>
<path d="M46.4734 12.9863C48.0541 12.9863 49.4152 13.4778 50.4528 14.3497L53.8332 17.1891C52.7958 16.3181 51.4354 15.8272 49.8557 15.8272L46.4734 12.9863Z" fill="#007C89" fill-opacity="0.2"/>
<path d="M42.496 24.9003C41.4086 23.9865 40.6518 22.6893 40.3626 21.1357L43.7449 23.9766C44.034 25.5302 44.7908 26.8275 45.8783 27.7413L42.496 24.9003Z" fill="#007C89" fill-opacity="0.2"/>
<path d="M52.5083 18.0849H40.3626L43.7449 20.9258H55.8906L52.5083 18.0849Z" fill="#007C89" fill-opacity="0.2"/>
<path d="M50.4529 14.3496C51.5108 15.2385 52.2324 16.5228 52.5075 18.0848L55.8897 20.9258C55.6146 19.3638 54.893 18.0794 53.8351 17.1905L50.4529 14.3496Z" fill="#007C89" fill-opacity="0.2"/>
<path d="M46.7074 26.3651C45.0575 26.3651 43.6058 25.8326 42.4974 24.9019L45.8777 27.7412C46.9864 28.6729 48.4388 29.206 50.0896 29.206L46.7074 26.3651Z" fill="#007C89" fill-opacity="0.2"/>
<path d="M40.3626 21.1357H58.0362L61.4184 23.9766H43.7449L40.3626 21.1357Z" fill="#007C89" fill-opacity="0.2"/>
<path d="M38.7376 28.4491C40.77 30.1555 43.4516 31.1591 46.4742 31.1591L49.8564 34C46.8338 34 44.1523 32.9964 42.1199 31.29L38.7376 28.4491Z" fill="#007C89" fill-opacity="0.2"/>
<path d="M58.1137 19.6544C58.1137 15.8732 56.6298 12.7668 54.1998 10.7248L57.5783 13.5626C60.0105 15.6046 61.4959 18.7122 61.4959 22.4953L58.1137 19.6544Z" fill="#007C89" fill-opacity="0.2"/>
<path d="M51.9233 23.8378C50.9111 25.4066 49.0426 26.3654 46.7068 26.3654L50.0891 29.2063C52.4248 29.2063 54.2934 28.2476 55.3055 26.6787L51.9233 23.8378Z" fill="#007C89" fill-opacity="0.2"/>
<path d="M57.452 23.8378H51.9241L55.3063 26.6787H60.8342L57.452 23.8378Z" fill="#007C89" fill-opacity="0.2"/>
<path d="M46.4734 31.1591C51.8067 31.1591 55.972 28.2828 57.4513 23.8378L60.8335 26.6787C59.3542 31.1238 55.1889 34 49.8557 34L46.4734 31.1591Z" fill="#007C89" fill-opacity="0.2"/>
<path d="M58.0349 21.1359C58.1128 20.6565 58.1128 20.1336 58.1128 19.6542L61.495 22.4952C61.495 22.9745 61.495 23.4975 61.4172 23.9768L58.0349 21.1359Z" fill="#007C89" fill-opacity="0.2"/>
<path d="M71.974 8.06247C65.4729 8.06247 60.6458 12.9869 60.6458 19.6545L64.028 22.4954C64.028 15.8278 68.8551 10.9034 75.3562 10.9034L71.974 8.06247Z" fill="#007C89" fill-opacity="0.2"/>
<path d="M85.4819 0H80.0319L83.4141 2.84093H88.8641L85.4819 0Z" fill="#007C89" fill-opacity="0.2"/>
<path d="M60.6458 19.6542C60.6458 23.3315 62.1653 26.4916 64.6338 28.5642L68.0129 31.4025C65.5462 29.3298 64.028 26.1708 64.028 22.4952L60.6458 19.6542Z" fill="#007C89" fill-opacity="0.2"/>
<path d="M79.0351 10.5477C77.1445 8.96048 74.6975 8.06247 71.9738 8.06247L75.3561 10.9034C78.0797 10.9034 80.5267 11.8014 82.4173 13.3886L79.0351 10.5477Z" fill="#007C89" fill-opacity="0.2"/>
<path d="M66.095 19.6536C66.095 16.0366 69.0535 13.4218 73.141 13.4218L76.5232 16.2628C72.4357 16.2628 69.4772 18.8775 69.4772 22.4945L66.095 19.6536Z" fill="#007C89" fill-opacity="0.2"/>
<path d="M80.0319 0V11.5048L83.4141 14.3458V2.84093L80.0319 0Z" fill="#007C89" fill-opacity="0.2"/>
<path d="M68.1572 24.0899C66.8631 23.0025 66.095 21.4528 66.095 19.6542L69.4772 22.4952C69.4772 24.2937 70.2453 25.8434 71.5394 26.9309L68.1572 24.0899Z" fill="#007C89" fill-opacity="0.2"/>
<path d="M73.1413 13.4218C75.0904 13.4218 76.7475 14.0065 77.9477 15.0151L81.328 17.8544C80.1278 16.8468 78.4716 16.2628 76.5235 16.2628L73.1413 13.4218Z" fill="#007C89" fill-opacity="0.2"/>
<path d="M80.0318 11.5053C79.7212 11.1644 79.3896 10.846 79.0389 10.5512L82.4171 13.3887C82.7693 13.6844 83.1022 14.0041 83.414 14.3463L80.0318 11.5053Z" fill="#007C89" fill-opacity="0.2"/>
<path d="M73.1422 25.7551C71.1384 25.7551 69.4059 25.1371 68.1602 24.0913L71.5406 26.9307C72.7864 27.9775 74.5196 28.596 76.5244 28.596L73.1422 25.7551Z" fill="#007C89" fill-opacity="0.2"/>
<path d="M64.6335 28.5643C66.5824 30.2007 69.1227 31.1592 71.9737 31.1592L75.3559 34.0001C72.5049 34.0001 69.9646 33.0416 68.0158 31.4053L64.6335 28.5643Z" fill="#007C89" fill-opacity="0.2"/>
<path d="M77.9479 15.0156C79.2648 16.1221 80.0319 17.739 80.0319 19.6541L83.4141 22.495C83.4141 20.5799 82.647 18.9631 81.3302 17.8565L77.9479 15.0156Z" fill="#007C89" fill-opacity="0.2"/>
<path d="M97.8048 0H90.7199L94.1021 2.84093H101.187L97.8048 0Z" fill="#007C89" fill-opacity="0.2"/>
<path d="M80.0317 19.6542C80.0317 23.2713 77.2677 25.7553 73.1413 25.7553L76.5235 28.5962C80.65 28.5962 83.4139 26.1122 83.4139 22.4952L80.0317 19.6542Z" fill="#007C89" fill-opacity="0.2"/>
<path d="M85.4811 30.5052V0L88.8633 2.84093V33.3462L85.4811 30.5052Z" fill="#007C89" fill-opacity="0.2"/>
<path d="M71.9738 31.1587C75.2828 31.1587 78.1245 29.8513 80.1099 27.6288L83.4921 30.4697C81.5068 32.6923 78.665 33.9996 75.3561 33.9996L71.9738 31.1587Z" fill="#007C89" fill-opacity="0.2"/>
<path d="M90.7199 0L101.97 15.0347L105.352 17.8757L94.1021 2.84093L90.7199 0Z" fill="#007C89" fill-opacity="0.2"/>
<path d="M80.11 27.6288L80.655 30.505L84.0373 33.3459L83.4923 30.4697L80.11 27.6288Z" fill="#007C89" fill-opacity="0.2"/>
<path d="M105.513 10.2846L97.8048 0L101.187 2.84093L108.895 13.1256L105.513 10.2846Z" fill="#28282F" fill-opacity="0.4"/>
<path d="M80.6545 30.5048H85.4816L88.8638 33.3457H84.0367L80.6545 30.5048Z" fill="#007C89" fill-opacity="0.2"/>
<path d="M113.221 0L105.513 10.2846L108.895 13.1256L116.603 2.84093L113.221 0Z" fill="#007C89" fill-opacity="0.2"/>
<path d="M101.97 15.0351L90.4078 30.5056L93.7901 33.3465L105.352 17.876L101.97 15.0351Z" fill="#007C89" fill-opacity="0.2"/>
<path d="M120.305 0H113.22L116.602 2.84093H123.687L120.305 0Z" fill="#007C89" fill-opacity="0.2"/>
<path d="M90.4078 30.5048H97.4928L100.875 33.3457H93.7901L90.4078 30.5048Z" fill="#28282F" fill-opacity="0.4"/>
<path d="M109.056 15.0347L120.306 0L123.688 2.84093L112.438 17.8757L109.056 15.0347Z" fill="#28282F" fill-opacity="0.4"/>
<path d="M97.4933 30.5055L105.513 19.7851L108.895 22.626L100.875 33.3464L97.4933 30.5055Z" fill="#28282F" fill-opacity="0.4"/>
<path d="M105.513 19.7851L113.533 30.5055L116.915 33.3464L108.895 22.626L105.513 19.7851Z" fill="#007C89" fill-opacity="0.2"/>
<path d="M120.618 30.5056L109.056 15.0351L112.438 17.876L124 33.3465L120.618 30.5056Z" fill="#28282F" fill-opacity="0.4"/>
<path d="M113.533 30.5048H120.618L124 33.3457H116.915L113.533 30.5048Z" fill="#28282F" fill-opacity="0.4"/>
<path d="M71.9733 10.5625C73.0552 10.5625 74.0659 10.7402 74.9851 11.0683C74.3874 10.9713 73.7707 10.9218 73.1413 10.9218C67.9711 10.9219 63.5955 14.3764 63.5955 19.6542C63.5955 24.8882 68.0206 28.2547 73.1413 28.2548C73.8434 28.2548 74.5296 28.1947 75.1921 28.078C74.2234 28.4536 73.1447 28.6591 71.9733 28.6591C66.926 28.6589 63.1453 24.8878 63.1453 19.6542C63.1453 14.3151 66.905 10.5626 71.9733 10.5625ZM96.5543 2.49999L103.512 11.7841L105.513 14.4531L107.513 11.7841L114.471 2.49999H115.312L107.053 13.5371L105.933 15.0341L107.053 16.5312L115.627 28.0048H114.784L107.515 18.287L105.513 15.6113L103.511 18.287L96.2418 28.0048H95.3981L103.973 16.5312L105.092 15.0341L103.972 13.5371L95.7135 2.49999H96.5543ZM28.9149 2.49999V28.0048H28.4657V10.9384L23.6317 10.042L16.7343 28.0048H16.5976L18.0663 24.1093L26.2147 2.49999H28.9149ZM5.2031 2.49999L13.3896 24.1132L14.8632 28.0048H14.6845L7.78513 9.95895L2.95018 10.8515V28.0048H2.49999V2.49999H5.2031ZM43.2489 11.0673C40.4862 12.1206 38.4982 14.5274 37.9071 17.6152L37.7118 18.6357H37.3543L37.5301 19.5829L37.3387 20.5849H37.7166L37.9041 21.5927C38.4133 24.3284 40.012 26.5102 42.2469 27.746C39.2019 26.3124 37.2567 23.314 37.2567 19.6542C37.2567 15.5214 39.6249 12.2712 43.2489 11.0673ZM49.6482 11.038C50.9843 11.4634 52.1304 12.1557 53.0418 13.0468C54.412 14.3867 55.3569 16.2735 55.5681 18.6357H55.1433L54.9695 17.6513C54.4125 14.4899 52.4439 12.0726 49.6482 11.038ZM82.5319 2.49999H82.9821V28.0048H82.7253L82.5661 27.164L81.8092 23.1698C82.2829 22.0984 82.5319 20.9105 82.5319 19.6542C82.5319 18.9956 82.4622 18.3555 82.3307 17.7402L82.5319 17.9609V2.49999Z" stroke="#009AAB" stroke-width="5"/>
<path d="M96.5533 2.49999L103.511 11.7841L105.512 14.4531L107.512 11.7841L114.47 2.49999H115.312L107.053 13.5371L105.933 15.0341L107.052 16.5312L115.626 28.0048H114.784L107.514 18.287L105.512 15.6113L103.51 18.287L96.2408 28.0048H95.3981L103.972 16.5312L105.091 15.0341L103.971 13.5371L95.7125 2.49999H96.5533Z" fill="#28282F" stroke="#28282F" stroke-width="5"/>
</svg>
