<svg width="374" height="99" viewBox="0 0 374 99" fill="none" xmlns="http://www.w3.org/2000/svg">
<path d="M16.8704 34.4769V96.9231H0V0H21.4495L48.6832 73.8L75.7964 0H97.2459V96.9231H80.3755V34.7539L57.1184 96.9231H40.1275L16.8704 34.4769Z" fill="white"/>
<path d="M179.649 67.1539H124.941C126.748 77.1231 134.461 83.7693 144.583 83.7693C151.813 83.7693 157.597 80.7231 160.73 75.7385H177.842C173.263 89.8616 160.369 99 143.86 99C123.133 99 107.588 83.3539 107.588 62.4462C107.588 41.2616 123.013 25.6154 143.86 25.6154C164.466 25.6154 179.89 40.4308 179.89 62.4462C179.89 63.9693 179.89 65.6308 179.649 67.1539ZM124.941 57.4616H162.538C160.851 47.6308 153.741 41.2616 143.86 41.2616C134.099 41.2616 126.748 47.7692 124.941 57.4616Z" fill="white"/>
<path d="M264.608 96.9231H249.666L247.979 87.7847C241.833 94.8462 233.037 99 222.794 99C202.791 99 187.728 83.3539 187.728 62.4462C187.728 41.2616 202.67 25.6154 222.794 25.6154C232.796 25.6154 241.592 29.6308 247.738 36.5539V0H264.608V96.9231ZM204.598 62.4462C204.598 73.6616 213.756 81.8308 226.409 81.8308C239.182 81.8308 247.738 73.9385 247.738 62.4462C247.738 50.8154 239.062 42.6462 226.409 42.6462C213.756 42.6462 204.598 50.9539 204.598 62.4462Z" fill="white"/>
<path d="M337.58 47.7693L373.37 96.9231H351.438L326.614 62.8616L301.791 96.9231H279.859L315.649 47.7693L280.823 0H302.755L326.614 32.6769L350.474 0H372.405L337.58 47.7693Z" fill="white"/>
<path d="M337.582 47.7693L373.371 96.9231H351.44L326.616 62.8616L301.793 96.9231H279.861L315.65 47.7693L280.825 0H302.757L326.616 32.6769L350.476 0H372.407L337.582 47.7693Z" fill="white"/>
</svg>
